<?xml version="1.0" encoding="UTF-8" standalone="no"?>
<svg
   xmlns:dc="http://purl.org/dc/elements/1.1/"
   xmlns:cc="http://creativecommons.org/ns#"
   xmlns:rdf="http://www.w3.org/1999/02/22-rdf-syntax-ns#"
   xmlns:svg="http://www.w3.org/2000/svg"
   xmlns="http://www.w3.org/2000/svg"
   viewBox="0 0 831.50665 831.50665"
   height="831.50665"
   width="831.50665"
   xml:space="preserve"
   id="svg2"
   version="1.1"><metadata
     id="metadata8"><rdf:RDF><cc:Work
         rdf:about=""><dc:format>image/svg+xml</dc:format><dc:type
           rdf:resource="http://purl.org/dc/dcmitype/StillImage" /></cc:Work></rdf:RDF></metadata><defs
     id="defs6" /><g
     transform="matrix(1.3333333,0,0,-1.3333333,0,831.50667)"
     id="g10"><g
       transform="scale(0.1)"
       id="g12"><path
         id="path14"
         style="fill:#231f20;fill-opacity:1;fill-rule:nonzero;stroke:none"
         d="M 4441.34,3453.34 H 1688.96 l -17.8,54.73 77.11,40.9 h 2633.78 l 77.12,-40.9 z m -328.35,-880.31 h -345.47 v 629.59 h 345.47 z m 0,-282.72 v -271.58 h -345.47 v 271.58 z m -1540.55,819.85 v 92.46 h 985.08 v -92.46 z M 3191.3,2158.42 H 2939 v 46.7 h 252.3 z m -828.86,414.61 h -345.23 v 629.59 h 345.23 z m -345.23,-554.3 v 271.58 h 345.23 v -271.58 z m 137.58,2166.33 h 1820.74 l 61.52,-130.14 H 2093.27 Z m 2514.84,-504.9 -237.66,126.15 -230.27,486.85 c -6.8,14.3 -16.4,26.14 -27.19,36.39 l 65.98,205.49 c 6.8,21.33 -0.12,44.65 -17.34,58.77 -17.23,14.11 -41.48,16.35 -60.94,5.62 l -288.04,-159.72 h -1617.9 l -288.16,159.72 c -19.34,10.73 -43.48,8.49 -60.94,-5.62 -17.23,-14.12 -24.14,-37.44 -17.35,-58.77 l 65.87,-205.49 c -10.67,-10.25 -20.28,-22.09 -27.08,-36.39 l -230.28,-486.85 -237.64,-126.15 c -53.8,-28.54 -79.35,-91.58 -60.47,-149.42 l 78.39,-241.46 c 16.65,-51.68 64.93,-86.66 119.19,-86.66 h 166.75 V 2018.73 h -47.11 c -15,0 -27.18,-12.19 -27.18,-27.24 v -328.83 c 0,-15.06 12.18,-27.24 27.18,-27.24 h 944.88 c 15,0 27.19,12.18 27.19,27.24 v 328.83 c 0,15.05 -12.19,27.24 -27.19,27.24 h -89.88 v 927.95 h 203.33 c -84.14,-75.58 -122.82,-179.06 -122.82,-323.08 0,-171.69 55.55,-285.59 177.07,-363.46 0,-0.18 -0.12,-0.29 -0.12,-0.53 v -155.68 c 0,-30.12 24.39,-54.5 54.49,-54.5 h 361.53 c 30.12,0 54.49,24.38 54.49,54.5 v 155.68 c 0,0.24 -0.11,0.35 -0.11,0.53 121.51,77.87 177.06,191.77 177.06,363.46 0,144.02 -38.66,247.5 -122.81,323.08 h 202.97 v -927.95 h -89.53 c -15.12,0 -27.3,-12.19 -27.3,-27.24 v -328.83 c 0,-15.06 12.18,-27.24 27.3,-27.24 h 944.88 c 15,0 27.19,12.18 27.19,27.24 v 328.83 c 0,15.05 -12.19,27.24 -27.19,27.24 h -47.22 v 1183.89 h 166.87 c 54.26,0 102.54,34.98 119.18,86.66 l 78.4,241.46 c 18.86,57.84 -6.68,120.88 -60.47,149.42" /></g></g></svg>