<?xml version="1.0" encoding="UTF-8" standalone="no"?>
<!DOCTYPE svg PUBLIC "-//W3C//DTD SVG 1.1//EN" "http://www.w3.org/Graphics/SVG/1.1/DTD/svg11.dtd">
<svg version="1.1" xmlns="http://www.w3.org/2000/svg" xmlns:xlink="http://www.w3.org/1999/xlink" preserveAspectRatio="xMidYMid meet" viewBox="0 0 500 500" width="500" height="500"><defs><path d="M250 500C112.02 500 0 387.98 0 250C0 112.02 112.02 0 250 0C387.98 0 500 112.02 500 250C500 387.98 387.98 500 250 500Z" id="ax4Skr5gl"></path><path d="M336.47 168.33L342.9 231.09L389.2 231.09L389.2 261.95L346.07 261.95L360.03 397.99L326.89 397.99L312.94 261.95L187.07 261.95L173.11 397.99L139.98 397.99L153.93 261.95L110.8 261.95L110.8 231.09L157.1 231.09L163.53 168.32L97.01 168.32L90 133.26L410 133.26L402.99 168.33L336.47 168.33ZM190.23 231.09L309.77 231.09L303.34 168.32L196.67 168.32L190.23 231.09Z" id="c2hSeVx1Mj"></path></defs><g><g><g><use xlink:href="#ax4Skr5gl" opacity="1" fill="#960000" fill-opacity="1"></use><g><use xlink:href="#ax4Skr5gl" opacity="1" fill-opacity="0" stroke="#000000" stroke-width="1" stroke-opacity="0"></use></g></g><g><use xlink:href="#c2hSeVx1Mj" opacity="1" fill="#ffffff" fill-opacity="1"></use><g><use xlink:href="#c2hSeVx1Mj" opacity="1" fill-opacity="0" stroke="#000000" stroke-width="1" stroke-opacity="0"></use></g></g></g></g></svg>