<?xml version="1.0" standalone="no"?>
<!DOCTYPE svg PUBLIC "-//W3C//DTD SVG 20010904//EN"
 "http://www.w3.org/TR/2001/REC-SVG-20010904/DTD/svg10.dtd">
<svg version="1.0" xmlns="http://www.w3.org/2000/svg"
 width="700.000000pt" height="700.000000pt" viewBox="0 0 700.000000 700.000000"
 preserveAspectRatio="xMidYMid meet">
<metadata>
Created by potrace 1.11, written by Peter Selinger 2001-2013
</metadata>
<g transform="translate(0.000000,700.000000) scale(0.100000,-0.100000)"
fill="#000000" stroke="none">
<path d="M3285 6994 c-203 -20 -276 -28 -375 -45 -595 -102 -1125 -343 -1615
-733 -129 -102 -409 -382 -511 -511 -439 -551 -679 -1129 -766 -1845 -17 -137
-17 -583 0 -720 87 -716 327 -1294 766 -1845 102 -129 382 -409 511 -511 551
-439 1129 -679 1845 -766 137 -17 583 -17 720 0 716 87 1294 327 1845 766 129
102 409 382 511 511 392 492 633 1025 733 1620 38 223 46 327 46 585 0 258 -8
362 -46 585 -100 595 -341 1128 -733 1620 -102 129 -382 409 -511 511 -539
429 -1114 673 -1795 759 -117 15 -536 28 -625 19z m2451 -1881 c-3 -10 -23
-112 -46 -228 -23 -115 -43 -218 -46 -227 -5 -17 -36 -18 -470 -18 l-465 0 6
-42 c6 -44 85 -816 85 -830 0 -4 146 -8 325 -8 l325 0 0 -215 0 -215 -300 0
-300 0 0 -23 c0 -23 174 -1741 186 -1830 l6 -47 -233 2 -233 3 -98 945 c-53
520 -97 946 -97 948 -1 1 -397 2 -881 2 -484 0 -880 -1 -880 -2 -1 -2 -45
-428 -98 -948 l-98 -945 -233 -3 -233 -2 6 47 c12 89 186 1807 186 1830 l0 23
-300 0 -300 0 0 215 0 215 325 0 c179 0 325 4 325 8 0 14 79 786 85 830 l6 42
-465 0 c-434 0 -465 1 -470 18 -3 9 -23 112 -46 227 -23 116 -43 218 -46 228
-5 16 106 17 2236 17 2130 0 2241 -1 2236 -17z"/>
<path d="M2736 4473 c-10 -93 -30 -288 -45 -436 -15 -147 -25 -270 -22 -272 6
-7 1656 -6 1663 0 4 4 -5 100 -68 708 l-17 167 -747 0 -747 0 -17 -167z"/>
</g>
</svg>
